<svg xmlns="http://www.w3.org/2000/svg" xmlns:xlink="http://www.w3.org/1999/xlink" width="500" zoomAndPan="magnify" viewBox="0 0 375 374.999991" height="500" preserveAspectRatio="xMidYMid meet" version="1.0"><defs><clipPath id="df212f03cf"><path d="M 0 84.886719 L 375 84.886719 L 375 290.144531 L 0 290.144531 Z M 0 84.886719 " clip-rule="nonzero"/></clipPath></defs><path fill="#ed1f30" d="M 130.066406 208.644531 C 130.066406 201.148438 123.984375 195.074219 116.480469 195.074219 L 59.515625 195.074219 C 52.015625 195.074219 45.933594 201.148438 45.933594 208.644531 C 45.933594 216.140625 52.015625 222.214844 59.515625 222.214844 L 116.480469 222.214844 C 123.984375 222.214844 130.066406 216.140625 130.066406 208.644531 " fill-opacity="1" fill-rule="nonzero"/><path fill="#ed1f30" d="M 164.636719 242.890625 L 138.59375 242.890625 C 131.09375 242.890625 125.011719 248.964844 125.011719 256.460938 C 125.011719 263.957031 131.09375 270.03125 138.59375 270.03125 L 164.636719 270.03125 C 172.136719 270.03125 178.222656 263.957031 178.222656 256.460938 C 178.222656 248.964844 172.136719 242.890625 164.636719 242.890625 " fill-opacity="1" fill-rule="nonzero"/><g clip-path="url(#df212f03cf)"><path fill="#ed1f30" d="M 288.890625 276.25 C 278.375 276.25 268.386719 273.996094 259.375 269.941406 C 246.492188 264.140625 235.613281 254.675781 228.074219 242.886719 C 224.046875 236.59375 220.972656 229.628906 219.054688 222.214844 C 217.570312 216.460938 216.78125 210.4375 216.78125 204.226562 C 216.78125 201.125 216.976562 198.070312 217.363281 195.070312 C 218.289062 187.785156 220.316406 180.835938 223.265625 174.394531 C 228.152344 163.691406 235.597656 154.378906 244.8125 147.253906 C 246.066406 146.28125 247.351562 145.355469 248.667969 144.464844 C 250.652344 143.132812 252.703125 141.894531 254.816406 140.757812 C 264.964844 135.289062 276.570312 132.191406 288.890625 132.191406 C 328.644531 132.191406 360.988281 164.503906 360.988281 204.226562 C 360.988281 243.9375 328.644531 276.25 288.890625 276.25 Z M 300.230469 119.011719 L 300.230469 104.035156 C 305.394531 103.808594 309.511719 99.570312 309.511719 94.355469 C 309.511719 89 305.167969 84.660156 299.804688 84.660156 L 277.964844 84.660156 C 272.605469 84.660156 268.257812 89 268.257812 94.355469 C 268.257812 99.570312 272.378906 103.808594 277.539062 104.035156 L 277.539062 119.011719 C 256.539062 121.789062 237.902344 132.15625 224.5 147.253906 L 14.265625 147.253906 C 6.785156 147.253906 0.371094 153.097656 0.230469 160.570312 C 0.0898438 168.179688 6.226562 174.394531 13.820312 174.394531 L 208.179688 174.394531 C 205.746094 180.953125 204.089844 187.882812 203.328125 195.070312 L 155.710938 195.070312 C 148.230469 195.070312 141.8125 200.917969 141.675781 208.390625 C 141.539062 216 147.671875 222.214844 155.257812 222.214844 L 204.738281 222.214844 C 206.289062 229.480469 208.773438 236.417969 212.046875 242.886719 L 198.046875 242.886719 C 190.542969 242.886719 184.457031 248.96875 184.457031 256.460938 C 184.457031 260.207031 185.980469 263.597656 188.441406 266.058594 C 190.898438 268.515625 194.292969 270.03125 198.046875 270.03125 L 233.589844 270.03125 C 248.5625 282.601562 267.859375 290.179688 288.890625 290.179688 C 336.332031 290.179688 374.929688 251.621094 374.929688 204.226562 C 374.929688 160.660156 342.335938 124.574219 300.230469 119.011719 " fill-opacity="1" fill-rule="nonzero"/></g><path fill="#ed1f30" d="M 291.132812 193.113281 C 290.410156 192.964844 289.65625 192.886719 288.890625 192.886719 C 282.625 192.886719 277.539062 197.964844 277.539062 204.21875 C 277.539062 210.476562 282.625 215.554688 288.890625 215.554688 C 295.148438 215.554688 300.230469 210.476562 300.230469 204.21875 C 300.230469 203.046875 300.054688 201.929688 299.722656 200.863281 L 309.273438 187.324219 L 327.386719 161.636719 L 303.488281 182.382812 L 291.132812 193.113281 " fill-opacity="1" fill-rule="nonzero"/></svg>